<?xml version="1.0" standalone="no"?>
<!DOCTYPE svg PUBLIC "-//W3C//DTD SVG 20010904//EN"
 "http://www.w3.org/TR/2001/REC-SVG-20010904/DTD/svg10.dtd">
<svg version="1.0" xmlns="http://www.w3.org/2000/svg"
 width="300" height="50" viewBox="0 0 1000 480"
 preserveAspectRatio="xMidYMid meet">

<g transform="translate(0.000000,261.000000) scale(0.100000,-0.100000)"
fill="#FFFFFF" stroke="none">
<path d="M4257 1983 c-70 -23 -132 -82 -154 -146 -16 -46 -18 -88 -18 -372 l0
-320 30 -60 c53 -106 159 -152 328 -142 153 8 261 82 282 194 8 44 6 46 -99
68 -44 9 -88 19 -97 21 -12 3 -19 -6 -27 -39 -14 -52 -38 -76 -84 -83 -27 -5
-41 -1 -64 19 l-29 25 -3 294 c-2 161 0 308 3 326 9 47 37 72 84 72 49 0 87
-36 96 -91 4 -24 12 -39 18 -36 7 2 56 15 110 28 111 26 113 29 73 116 -29 61
-85 106 -159 128 -67 20 -227 19 -290 -2z"/>
<path d="M6507 1986 c-92 -33 -149 -96 -168 -185 -21 -100 7 -195 79 -267 23
-23 89 -74 148 -115 125 -86 159 -129 159 -200 0 -138 -167 -163 -190 -28 -4
22 -10 39 -13 39 -18 -1 -203 -48 -209 -53 -11 -12 8 -74 36 -119 23 -36 44
-53 97 -79 65 -32 74 -34 179 -34 105 0 114 2 178 33 115 57 165 151 155 291
-9 121 -78 211 -253 331 -118 80 -155 119 -155 161 0 58 68 97 121 69 22 -12
49 -61 49 -90 0 -25 0 -25 116 2 86 20 94 23 94 45 0 71 -74 162 -157 193 -64
24 -207 27 -266 6z"/>
<path d="M430 1940 l0 -40 55 0 55 0 2 -212 3 -213 55 0 55 0 3 213 2 212 55
0 55 0 0 40 0 40 -170 0 -170 0 0 -40z"/>
<path d="M840 1724 l0 -255 53 3 52 3 5 115 5 115 47 3 47 3 3 -118 3 -118 53
-3 52 -3 0 255 0 256 -55 0 -55 0 0 -95 0 -95 -50 0 -50 0 0 95 0 95 -55 0
-55 0 0 -256z"/>
<path d="M1272 1728 l3 -253 133 -3 132 -3 0 40 0 40 -77 3 -78 3 0 75 0 75
70 5 70 5 0 35 0 35 -70 5 -70 5 0 50 0 50 78 3 77 3 0 39 0 40 -135 0 -135 0
2 -252z"/>
<path d="M1720 1475 l0 -505 80 0 80 0 0 203 c0 118 4 196 9 187 7 -12 91
-369 91 -386 0 -2 43 -4 95 -4 78 0 95 3 95 15 0 24 81 369 88 377 4 4 5 -83
3 -192 l-3 -200 121 0 121 0 0 505 0 506 -122 -3 -122 -3 -67 -260 c-37 -143
-70 -273 -74 -290 -10 -39 -6 -50 -90 275 l-71 275 -117 3 -117 3 0 -506z"/>
<path d="M2806 1797 c-66 -248 -121 -455 -166 -622 -21 -77 -41 -155 -45 -172
l-7 -33 86 0 86 0 17 60 16 60 119 0 118 0 17 -60 16 -60 119 0 c65 0 118 4
118 8 0 5 -18 76 -40 158 -55 205 -108 402 -171 642 l-53 202 -90 0 -91 0 -49
-183z m142 -389 c18 -68 32 -129 32 -135 0 -9 -21 -13 -71 -13 -69 0 -71 1
-65 23 3 12 18 73 33 134 16 62 30 113 33 113 3 0 20 -55 38 -122z"/>
<path d="M3390 1475 l0 -505 85 0 85 0 0 220 c0 121 4 220 8 220 5 0 55 -99
112 -220 l103 -220 94 0 93 0 0 505 0 505 -85 0 -85 0 0 -220 c0 -121 -4 -220
-8 -220 -4 0 -56 99 -114 220 l-106 220 -91 0 -91 0 0 -505z"/>
<path d="M4850 1475 l0 -505 115 0 115 0 0 235 0 236 98 -3 97 -3 3 -232 2
-233 115 0 115 0 0 505 0 505 -115 0 -115 0 0 -190 0 -190 -100 0 -100 0 0
190 0 190 -115 0 -115 0 0 -505z"/>
<path d="M5660 1475 l0 -505 275 0 275 0 0 80 0 80 -160 0 -161 0 3 153 3 152
138 3 137 3 0 79 0 79 -137 3 -138 3 0 105 0 105 158 3 157 3 0 79 0 80 -275
0 -275 0 0 -505z"/>
<path d="M7027 1973 c-4 -3 -7 -39 -7 -79 l0 -73 113 -3 112 -3 3 -422 2 -423
115 0 115 0 2 423 3 422 113 3 112 3 0 79 0 80 -338 0 c-186 0 -342 -3 -345
-7z"/>
<path d="M7810 1475 l0 -505 280 0 281 0 -3 78 -3 77 -157 3 -158 3 0 154 0
155 135 0 135 0 0 80 0 80 -135 0 -135 0 0 110 0 110 160 0 161 0 -3 78 -3 77
-277 3 -278 2 0 -505z"/>
<path d="M8497 1973 c-4 -3 -7 -231 -7 -505 l0 -498 120 0 120 0 0 225 c0 191
2 225 15 225 10 0 26 -37 51 -117 19 -65 51 -165 69 -223 l32 -105 121 -3 121
-3 -24 68 c-13 37 -51 144 -84 237 l-61 169 38 36 c63 62 77 101 77 221 0 119
-16 162 -79 218 -58 51 -115 62 -321 62 -100 0 -185 -3 -188 -7z m313 -168
c36 -19 55 -72 46 -133 -8 -61 -38 -92 -88 -92 l-38 0 0 113 c0 63 3 117 7
120 11 11 42 8 73 -8z"/>
<path d="M534 1376 c-3 -8 -4 -25 -2 -38 l3 -23 505 0 505 0 0 35 0 35 -503 3
c-429 2 -503 0 -508 -12z"/>
</g>
</svg>
