<?xml version="1.0" standalone="no"?>
<!DOCTYPE svg PUBLIC "-//W3C//DTD SVG 20010904//EN"
 "http://www.w3.org/TR/2001/REC-SVG-20010904/DTD/svg10.dtd">
<svg version="1.0" xmlns="http://www.w3.org/2000/svg"
 width="1002.000000pt" height="197.000000pt" viewBox="0 0 1002.000000 197.000000"
 preserveAspectRatio="xMidYMid meet">

<g transform="translate(0.000000,197.000000) scale(0.100000,-0.100000)"
fill="#e4d9c5" stroke="none">
<path d="M4494 1960 c-134 -20 -222 -77 -265 -172 -24 -53 -24 -54 -24 -433 0
-349 2 -384 19 -429 26 -68 75 -118 148 -152 60 -27 70 -29 198 -29 162 0 215
15 289 81 49 44 73 89 86 156 l7 36 -128 30 c-71 17 -132 28 -136 26 -5 -3 -8
-18 -8 -34 0 -93 -100 -144 -167 -86 l-28 24 0 372 0 372 28 24 c30 26 83 32
118 14 24 -13 49 -61 49 -95 0 -14 7 -28 15 -31 23 -9 246 46 252 62 10 27
-30 118 -74 165 -53 57 -113 84 -216 98 -85 12 -88 12 -163 1z"/>
<path d="M7052 1959 c-181 -31 -282 -155 -270 -330 9 -126 68 -205 238 -319
165 -111 210 -164 210 -248 0 -58 -18 -101 -51 -117 -78 -41 -159 7 -159 94 0
16 -3 32 -8 35 -4 2 -65 -9 -136 -26 l-128 -30 7 -36 c16 -86 73 -160 154
-201 96 -49 284 -54 396 -11 135 52 215 187 202 342 -13 151 -89 250 -307 398
-137 93 -175 136 -166 185 12 59 83 93 137 65 21 -12 49 -60 49 -87 1 -44 11
-45 131 -18 63 15 118 30 123 35 12 12 -19 110 -49 150 -68 92 -230 144 -373
119z"/>
<path d="M17 1933 c-4 -3 -7 -26 -7 -50 l0 -43 65 0 65 0 0 -245 0 -246 68 3
67 3 3 242 2 242 63 3 62 3 3 33 c6 60 -1 62 -203 62 -100 0 -185 -3 -188 -7z"/>
<path d="M481 1927 c-8 -11 -11 -91 -9 -293 l3 -279 68 -3 67 -3 0 136 0 135
55 0 55 0 0 -135 0 -136 68 3 67 3 0 290 0 290 -65 0 -65 0 -3 -107 -3 -108
-54 0 -54 0 -3 108 -3 107 -56 3 c-39 2 -59 -1 -68 -11z"/>
<path d="M977 1934 c-4 -4 -7 -137 -7 -296 l0 -288 160 0 160 0 0 50 0 50 -90
0 -90 0 0 85 0 84 78 3 77 3 3 48 3 47 -80 0 -81 0 0 60 0 60 91 0 90 0 -3 48
-3 47 -151 3 c-82 1 -153 -1 -157 -4z"/>
<path d="M1495 1928 c-3 -7 -4 -272 -3 -588 l3 -575 90 0 90 0 5 235 5 235 49
-220 c27 -121 53 -228 58 -237 7 -15 23 -18 102 -18 63 0 97 4 104 12 5 7 32
112 60 233 l50 220 1 -227 c1 -267 -17 -240 161 -236 l115 3 0 585 0 585 -120
3 c-66 1 -129 0 -141 -2 -18 -5 -31 -46 -104 -332 -59 -229 -86 -322 -92 -308
-4 10 -42 154 -84 319 -42 165 -81 306 -86 313 -7 8 -47 12 -135 12 -90 0
-125 -3 -128 -12z"/>
<path d="M2790 1918 c-18 -40 -309 -1142 -304 -1150 3 -4 48 -8 99 -8 107 0
104 -2 126 93 l12 58 135 -3 135 -3 18 -62 c9 -34 20 -67 24 -72 10 -16 264
-15 270 2 3 6 -64 271 -148 587 l-152 575 -103 3 c-98 3 -103 2 -112 -20z
m110 -648 c17 -69 33 -133 36 -142 5 -16 -3 -18 -76 -18 -62 0 -81 3 -78 13 3
6 20 74 39 149 18 76 36 134 40 130 4 -4 22 -63 39 -132z"/>
<path d="M3412 1928 c-19 -19 -17 -1141 2 -1157 9 -8 46 -11 103 -9 l88 3 5
258 5 259 118 -249 c66 -136 126 -254 135 -261 12 -9 46 -12 112 -10 l95 3 0
585 0 585 -100 0 -100 0 -3 -255 -3 -255 -127 255 -127 255 -95 3 c-66 2 -99
-1 -108 -10z"/>
<path d="M5085 1928 c-3 -7 -4 -272 -3 -588 l3 -575 130 0 130 0 3 273 2 272
110 0 110 0 2 -272 3 -273 124 -3 c82 -2 128 1 137 9 12 10 14 107 14 579 0
472 -2 569 -14 579 -9 8 -55 11 -137 9 l-124 -3 -3 -217 -2 -218 -110 0 -110
0 -2 218 -3 217 -128 3 c-96 2 -129 -1 -132 -10z"/>
<path d="M6015 1928 c-3 -7 -4 -272 -3 -588 l3 -575 315 0 315 0 3 98 3 97
-181 0 -180 0 0 175 0 174 158 3 157 3 0 90 0 90 -157 3 -158 3 0 119 0 120
178 2 177 3 0 95 0 95 -313 3 c-245 2 -314 0 -317 -10z"/>
<path d="M7582 1928 c-12 -12 -17 -143 -6 -172 5 -13 26 -16 130 -16 l124 0 0
-485 0 -485 23 -5 c12 -3 74 -4 137 -3 l115 3 3 487 2 487 128 3 127 3 0 95 0
95 -385 3 c-292 2 -389 -1 -398 -10z"/>
<path d="M8485 1928 c-3 -7 -4 -272 -3 -588 l3 -575 315 0 315 0 0 95 0 95
-182 3 -183 2 0 175 0 175 160 0 160 0 0 95 0 95 -160 0 -160 0 0 120 0 120
183 2 182 3 0 95 0 95 -313 3 c-245 2 -314 0 -317 -10z"/>
<path d="M9265 1928 c-3 -7 -4 -272 -3 -588 l3 -575 115 -3 c63 -1 125 0 138
3 l22 5 0 255 c0 214 2 255 14 255 9 0 25 -34 44 -97 17 -54 52 -168 78 -253
26 -85 52 -158 58 -162 6 -4 65 -8 131 -8 66 0 125 4 131 8 8 5 -18 91 -86
280 l-97 272 38 31 c135 107 137 407 2 518 -70 57 -105 64 -355 69 -184 3
-229 1 -233 -10z m379 -211 c28 -28 41 -90 31 -149 -10 -57 -43 -88 -95 -88
l-40 0 0 130 0 130 40 0 c30 0 47 -7 64 -23z"/>
<path d="M130 1210 l0 -50 583 2 582 3 0 45 0 45 -582 3 -583 2 0 -50z"/>
<path d="M1470 230 l0 -220 163 2 162 3 0 55 0 55 -102 3 -102 3 -3 157 -3
157 -57 3 -58 3 0 -221z"/>
<path d="M1884 437 c-2 -7 -3 -105 -2 -217 l3 -205 160 0 160 0 0 50 0 50
-102 3 -103 3 0 29 0 30 65 0 65 0 0 50 0 50 -65 0 -65 0 0 30 0 30 95 0 95 0
0 55 0 55 -150 0 c-113 0 -152 -3 -156 -13z"/>
<path d="M2273 438 c2 -7 32 -53 66 -102 33 -50 61 -95 61 -100 0 -6 -29 -55
-65 -108 -36 -54 -65 -102 -65 -108 0 -7 23 -10 62 -8 l63 3 47 68 47 69 47
-71 47 -71 63 0 c38 0 64 4 64 10 0 6 -31 57 -69 113 l-69 103 69 100 c37 54
68 102 69 107 0 4 -29 7 -64 7 l-64 0 -42 -65 c-23 -36 -45 -65 -49 -65 -3 0
-25 30 -49 65 l-42 65 -66 0 c-49 0 -65 -3 -61 -12z"/>
<path d="M2794 437 c-2 -7 -3 -105 -2 -217 l3 -205 58 -3 57 -3 0 221 0 220
-55 0 c-36 0 -57 -5 -61 -13z"/>
<path d="M3035 438 c-3 -8 -4 -106 -3 -218 l3 -205 53 -3 52 -3 0 132 0 132
88 -129 89 -129 59 0 59 0 0 215 0 215 -52 3 -53 3 0 -133 0 -132 -87 129 -88
130 -58 3 c-41 2 -59 -1 -62 -10z"/>
<path d="M3660 434 c-67 -29 -111 -89 -125 -172 -25 -150 113 -287 253 -252
26 6 55 19 65 27 16 15 17 14 17 -6 0 -20 4 -22 48 -19 l47 3 3 118 3 118
-108 -3 -108 -3 -3 -42 -3 -43 52 0 52 0 -23 -25 c-30 -32 -95 -35 -133 -4
-35 27 -52 89 -37 134 25 77 114 101 167 45 24 -26 35 -30 82 -30 l54 0 -7 32
c-9 45 -49 93 -99 117 -52 25 -145 28 -197 5z"/>
<path d="M4040 390 l0 -60 75 0 75 0 0 -160 0 -161 58 3 57 3 3 158 3 157 75
0 75 0 -3 58 -3 57 -207 3 -208 2 0 -60z"/>
<path d="M4650 439 c-73 -29 -125 -99 -137 -184 -20 -149 120 -277 269 -246
98 21 156 78 177 173 23 101 -30 206 -124 249 -44 20 -143 24 -185 8z m133
-110 c38 -19 57 -52 57 -97 0 -54 -12 -77 -50 -97 -59 -30 -115 -13 -145 45
-20 39 -19 69 5 108 29 48 86 65 133 41z"/>
<path d="M5060 230 l0 -220 55 0 54 0 3 127 3 126 84 -127 84 -127 61 3 61 3
0 215 0 215 -55 0 -55 0 -3 -124 -3 -125 -84 127 -85 127 -60 0 -60 0 0 -220z"/>
<path d="M6194 437 c-2 -7 -3 -105 -2 -217 l3 -205 58 -3 57 -3 0 81 0 80 29
0 c25 0 35 -10 80 -80 l51 -80 65 0 c38 0 65 4 65 10 0 6 -30 56 -66 112 -36
55 -63 106 -60 113 2 7 30 52 60 99 31 48 56 91 56 96 0 6 -26 10 -59 10 l-58
0 -53 -80 c-45 -69 -56 -80 -81 -80 l-29 0 0 80 0 80 -55 0 c-36 0 -57 -5 -61
-13z"/>
<path d="M6685 437 c-3 -7 -4 -105 -3 -217 l3 -205 163 -3 162 -2 0 55 0 55
-105 0 -105 0 0 30 0 30 65 0 65 0 0 50 0 50 -65 0 -65 0 0 30 0 29 98 3 97 3
0 50 0 50 -153 3 c-118 2 -154 0 -157 -11z"/>
<path d="M7110 230 l0 -220 55 0 55 0 0 132 0 132 88 -129 87 -130 60 0 60 0
0 215 0 215 -52 3 -52 3 -3 -132 -3 -132 -88 132 -87 131 -60 0 -60 0 0 -220z"/>
<path d="M7600 390 l0 -60 75 0 75 0 0 -160 0 -161 58 3 57 3 3 158 3 157 75
0 75 0 -3 58 -3 57 -207 3 -208 2 0 -60z"/>
<path d="M8097 443 c-11 -11 -8 -255 4 -298 22 -77 75 -123 160 -139 51 -9
134 11 171 42 57 48 68 89 68 255 l0 148 -57 -3 -58 -3 -5 -141 c-4 -121 -8
-145 -24 -163 -25 -27 -85 -28 -117 -2 -23 18 -24 26 -27 165 l-3 146 -53 0
c-29 0 -56 -3 -59 -7z"/>
<path d="M8715 433 c-79 -41 -124 -114 -125 -199 0 -120 60 -198 172 -223 98
-22 209 31 245 116 23 57 19 63 -45 63 -52 0 -60 -3 -71 -24 -22 -41 -88 -59
-132 -36 -66 36 -63 167 6 198 47 22 76 15 116 -28 35 -37 43 -40 90 -40 l52
0 -6 37 c-8 48 -53 103 -107 131 -53 27 -149 30 -195 5z"/>
<path d="M9110 230 l0 -221 58 3 57 3 3 78 c3 76 3 77 30 77 23 0 35 -13 77
-78 l50 -77 69 -3 c81 -4 82 -11 -7 126 l-65 99 64 99 c35 55 64 102 64 107 0
4 -27 7 -60 7 l-60 0 -52 -80 c-44 -67 -57 -80 -80 -80 -27 0 -27 1 -30 78
l-3 77 -57 3 -58 3 0 -221z"/>
<path d="M9550 444 c0 -4 37 -66 83 -138 82 -131 82 -131 87 -211 l5 -80 58
-3 57 -3 0 75 0 75 85 135 c47 75 85 140 85 146 0 7 -23 10 -62 8 l-62 -3 -47
-80 c-26 -44 -50 -79 -54 -78 -4 1 -28 37 -54 80 l-47 78 -67 3 c-37 2 -67 0
-67 -4z"/>
<path d="M5740 200 l0 -50 90 0 90 0 0 50 0 50 -90 0 -90 0 0 -50z"/>
</g>
</svg>
