<?xml version="1.0" standalone="no"?>
<!DOCTYPE svg PUBLIC "-//W3C//DTD SVG 20010904//EN"
 "http://www.w3.org/TR/2001/REC-SVG-20010904/DTD/svg10.dtd">
<svg version="1.0" xmlns="http://www.w3.org/2000/svg"
 width="600.000000pt" height="74.000000pt" viewBox="0 0 600.000000 74.000000"
 preserveAspectRatio="xMidYMid meet">

<g transform="translate(0.000000,74.000000) scale(0.100000,-0.100000)"
fill="#e4d9c5" stroke="none">
<path d="M2669 731 c-93 -19 -144 -77 -154 -175 -12 -105 -2 -417 14 -446 52
-96 176 -134 307 -95 66 19 124 82 124 134 0 21 -3 22 -87 41 -57 13 -73 9
-73 -20 0 -46 -71 -68 -103 -32 -24 27 -25 426 -1 460 29 42 104 18 104 -35 0
-11 2 -22 5 -25 3 -3 38 2 78 12 l72 16 -2 34 c-2 44 -30 80 -84 107 -49 25
-143 36 -200 24z"/>
<path d="M4188 725 c-101 -32 -148 -127 -118 -236 13 -46 59 -93 155 -160 81
-56 105 -88 105 -142 0 -41 -26 -67 -67 -67 -34 0 -48 13 -58 53 -8 31 -7 31
-77 16 -82 -18 -89 -23 -76 -62 53 -160 343 -171 423 -17 22 43 29 109 16 157
-17 64 -67 120 -166 188 -49 34 -96 73 -104 87 -13 23 -13 29 2 52 30 46 89
28 103 -31 7 -27 21 -27 117 -2 36 9 38 13 32 37 -12 48 -40 87 -81 109 -52
29 -145 37 -206 18z"/>
<path d="M0 690 c0 -28 2 -30 40 -30 l40 0 0 -145 0 -145 40 0 40 0 0 145 0
145 40 0 c38 0 40 2 40 30 l0 30 -120 0 -120 0 0 -30z"/>
<path d="M280 545 l0 -175 40 0 40 0 0 80 0 80 35 0 35 0 0 -80 0 -80 40 0 40
0 0 175 0 175 -40 0 -40 0 0 -65 0 -65 -35 0 -35 0 0 65 0 65 -40 0 -40 0 0
-175z"/>
<path d="M580 545 l0 -175 95 0 95 0 0 30 c0 30 -1 30 -55 30 l-55 0 0 49 0
50 48 3 c43 3 47 5 50 31 3 26 2 27 -47 27 l-51 0 0 35 0 35 55 0 c54 0 55 0
55 30 l0 30 -95 0 -95 0 0 -175z"/>
<path d="M890 370 l0 -350 55 0 55 0 1 138 c0 75 3 130 6 122 4 -8 18 -69 33
-135 l26 -120 65 -3 65 -3 31 133 31 133 1 -132 1 -133 85 0 85 0 0 350 0 351
-87 -3 -86 -3 -50 -193 c-27 -106 -52 -191 -54 -188 -2 2 -25 88 -52 192 l-48
189 -81 3 -82 3 0 -351z"/>
<path d="M1665 708 c-2 -7 -36 -134 -75 -283 -39 -148 -80 -300 -90 -337 l-19
-68 63 0 64 0 11 45 11 45 79 0 78 0 13 -45 13 -45 84 0 c76 0 85 2 81 18 -3
9 -45 167 -93 350 l-88 332 -64 0 c-42 0 -65 -4 -68 -12z m70 -385 c10 -43 20
-84 22 -90 4 -10 -9 -13 -47 -13 -38 0 -51 3 -47 13 2 6 12 47 22 90 10 42 22
77 25 77 3 0 15 -35 25 -77z"/>
<path d="M2040 370 l0 -350 60 0 60 0 1 153 1 152 74 -152 75 -153 64 0 65 0
0 350 0 350 -60 0 -59 0 -3 -152 -3 -153 -74 153 -74 152 -64 0 -63 0 0 -350z"/>
<path d="M3040 370 l0 -351 83 3 82 3 3 158 3 157 59 0 59 0 3 -157 3 -158 83
-3 82 -3 0 351 0 351 -82 -3 -83 -3 -3 -127 -3 -128 -59 0 -59 0 -3 128 -3
127 -82 3 -83 3 0 -351z"/>
<path d="M3600 370 l0 -350 191 2 192 3 0 50 0 50 -109 5 -109 5 -3 102 -3
102 98 3 98 3 0 55 0 55 -98 3 -98 3 3 70 3 71 109 2 109 1 0 55 0 55 -192 3
-191 2 0 -350z"/>
<path d="M4542 663 l3 -58 73 -3 72 -3 0 -289 0 -290 85 0 85 0 0 290 0 289
73 3 72 3 3 58 3 57 -236 0 -236 0 3 -57z"/>
<path d="M5080 370 l0 -350 190 0 190 0 0 55 0 54 -107 3 -108 3 -3 102 -3
102 98 3 98 3 0 55 0 55 -98 3 -98 3 3 71 3 71 108 -2 107 -2 0 60 0 61 -190
0 -190 0 0 -350z"/>
<path d="M5550 370 l0 -350 80 0 79 0 3 150 c2 91 7 150 13 151 6 0 30 -66 55
-148 l46 -148 82 -3 c58 -2 82 1 82 9 0 7 -25 81 -55 164 l-55 152 35 37 c39
42 49 80 43 169 -5 76 -32 121 -92 148 -34 15 -66 19 -178 19 l-138 0 0 -350z
m237 204 c11 -17 14 -37 10 -65 -7 -50 -15 -59 -53 -62 l-29 -2 -3 69 c-2 38
-1 75 2 81 7 20 55 5 73 -21z"/>
<path d="M70 285 l0 -25 350 0 350 0 0 25 0 25 -350 0 -350 0 0 -25z"/>
</g>
</svg>
